<svg id="visual" viewBox="0 0 1920 800" width="1920" height="800" xmlns="http://www.w3.org/2000/svg" xmlns:xlink="http://www.w3.org/1999/xlink" version="1.1"><g stroke-width="1" stroke-linejoin="bevel"><path d="M925 378L954 223L788 311Z" fill="#f0f5ff" stroke="#f0f5ff"></path><path d="M954 223L743 154L788 311Z" fill="#eaf0ff" stroke="#eaf0ff"></path><path d="M631 442L789 504L788 311Z" fill="#eef3ff" stroke="#eef3ff"></path><path d="M788 311L789 504L925 378Z" fill="#eff4ff" stroke="#eff4ff"></path><path d="M789 504L1015 538L925 378Z" fill="#f0f5ff" stroke="#f0f5ff"></path><path d="M925 378L1165 371L954 223Z" fill="#eaf0ff" stroke="#eaf0ff"></path><path d="M1165 371L1090 94L954 223Z" fill="#e7efff" stroke="#e7efff"></path><path d="M954 223L923 0L743 154Z" fill="#eaf0ff" stroke="#eaf0ff"></path><path d="M1090 94L923 0L954 223Z" fill="#ebf1ff" stroke="#ebf1ff"></path><path d="M1015 538L1165 371L925 378Z" fill="#e5eeff" stroke="#e5eeff"></path><path d="M575 356L631 442L788 311Z" fill="#edf3ff" stroke="#edf3ff"></path><path d="M582 197L575 356L788 311Z" fill="#f0f5ff" stroke="#f0f5ff"></path><path d="M728 0L582 197L743 154Z" fill="#e7efff" stroke="#e7efff"></path><path d="M743 154L582 197L788 311Z" fill="#edf3ff" stroke="#edf3ff"></path><path d="M923 0L728 0L743 154Z" fill="#ebf1ff" stroke="#ebf1ff"></path><path d="M783 659L992 625L789 504Z" fill="#ebf1ff" stroke="#ebf1ff"></path><path d="M789 504L992 625L1015 538Z" fill="#eaf0ff" stroke="#eaf0ff"></path><path d="M1015 538L1162 542L1165 371Z" fill="#e9f0ff" stroke="#e9f0ff"></path><path d="M1301 139L1113 0L1090 94Z" fill="#eff4ff" stroke="#eff4ff"></path><path d="M1090 94L1113 0L923 0Z" fill="#e9f0ff" stroke="#e9f0ff"></path><path d="M992 625L1162 542L1015 538Z" fill="#eaf0ff" stroke="#eaf0ff"></path><path d="M577 665L783 659L789 504Z" fill="#eef3ff" stroke="#eef3ff"></path><path d="M1293 432L1311 255L1165 371Z" fill="#ecf2ff" stroke="#ecf2ff"></path><path d="M1165 371L1311 255L1090 94Z" fill="#eff4ff" stroke="#eff4ff"></path><path d="M1162 542L1293 432L1165 371Z" fill="#edf3ff" stroke="#edf3ff"></path><path d="M1311 255L1301 139L1090 94Z" fill="#e5eeff" stroke="#e5eeff"></path><path d="M728 0L523 0L582 197Z" fill="#eef3ff" stroke="#eef3ff"></path><path d="M582 197L382 147L575 356Z" fill="#eff4ff" stroke="#eff4ff"></path><path d="M631 442L577 665L789 504Z" fill="#eef3ff" stroke="#eef3ff"></path><path d="M343 503L577 665L631 442Z" fill="#eff4ff" stroke="#eff4ff"></path><path d="M343 503L631 442L575 356Z" fill="#e7efff" stroke="#e7efff"></path><path d="M783 659L898 800L992 625Z" fill="#eff4ff" stroke="#eff4ff"></path><path d="M992 625L1209 693L1162 542Z" fill="#e5eeff" stroke="#e5eeff"></path><path d="M1162 542L1340 673L1293 432Z" fill="#eff4ff" stroke="#eff4ff"></path><path d="M790 800L898 800L783 659Z" fill="#eef3ff" stroke="#eef3ff"></path><path d="M1133 800L1209 693L992 625Z" fill="#ecf2ff" stroke="#ecf2ff"></path><path d="M590 800L790 800L783 659Z" fill="#eff4ff" stroke="#eff4ff"></path><path d="M523 0L382 147L582 197Z" fill="#e9f0ff" stroke="#e9f0ff"></path><path d="M523 0L423 0L382 147Z" fill="#eff4ff" stroke="#eff4ff"></path><path d="M382 147L329 380L575 356Z" fill="#e7efff" stroke="#e7efff"></path><path d="M898 800L1133 800L992 625Z" fill="#eaf0ff" stroke="#eaf0ff"></path><path d="M329 380L343 503L575 356Z" fill="#e7efff" stroke="#e7efff"></path><path d="M1474 0L1392 0L1301 139Z" fill="#e7efff" stroke="#e7efff"></path><path d="M1301 139L1392 0L1113 0Z" fill="#f0f5ff" stroke="#f0f5ff"></path><path d="M1474 0L1301 139L1569 202Z" fill="#ebf1ff" stroke="#ebf1ff"></path><path d="M422 800L590 800L577 665Z" fill="#f0f5ff" stroke="#f0f5ff"></path><path d="M577 665L590 800L783 659Z" fill="#eaf0ff" stroke="#eaf0ff"></path><path d="M1209 693L1340 673L1162 542Z" fill="#eff4ff" stroke="#eff4ff"></path><path d="M1569 202L1301 139L1311 255Z" fill="#e6efff" stroke="#e6efff"></path><path d="M1379 800L1340 673L1209 693Z" fill="#edf3ff" stroke="#edf3ff"></path><path d="M343 503L409 660L577 665Z" fill="#ecf2ff" stroke="#ecf2ff"></path><path d="M1569 202L1311 255L1585 314Z" fill="#ecf2ff" stroke="#ecf2ff"></path><path d="M409 660L422 800L577 665Z" fill="#e9f0ff" stroke="#e9f0ff"></path><path d="M228 800L422 800L409 660Z" fill="#f0f5ff" stroke="#f0f5ff"></path><path d="M1585 314L1311 255L1293 432Z" fill="#e9f0ff" stroke="#e9f0ff"></path><path d="M1575 439L1585 314L1293 432Z" fill="#eef3ff" stroke="#eef3ff"></path><path d="M1512 641L1575 439L1293 432Z" fill="#ecf2ff" stroke="#ecf2ff"></path><path d="M329 380L197 468L343 503Z" fill="#ecf2ff" stroke="#ecf2ff"></path><path d="M126 650L228 800L409 660Z" fill="#eff4ff" stroke="#eff4ff"></path><path d="M145 276L197 468L329 380Z" fill="#f0f5ff" stroke="#f0f5ff"></path><path d="M145 276L329 380L147 224Z" fill="#eaf0ff" stroke="#eaf0ff"></path><path d="M1133 800L1379 800L1209 693Z" fill="#f0f5ff" stroke="#f0f5ff"></path><path d="M1340 673L1512 641L1293 432Z" fill="#e9f0ff" stroke="#e9f0ff"></path><path d="M1379 800L1512 641L1340 673Z" fill="#e5eeff" stroke="#e5eeff"></path><path d="M147 224L329 380L382 147Z" fill="#ebf1ff" stroke="#ebf1ff"></path><path d="M201 0L147 224L382 147Z" fill="#ebf1ff" stroke="#ebf1ff"></path><path d="M423 0L201 0L382 147Z" fill="#e9f0ff" stroke="#e9f0ff"></path><path d="M1758 462L1711 285L1575 439Z" fill="#f0f5ff" stroke="#f0f5ff"></path><path d="M1575 439L1711 285L1585 314Z" fill="#eaf0ff" stroke="#eaf0ff"></path><path d="M1585 314L1711 285L1569 202Z" fill="#e5eeff" stroke="#e5eeff"></path><path d="M1569 202L1716 0L1474 0Z" fill="#ecf2ff" stroke="#ecf2ff"></path><path d="M126 650L343 503L197 468Z" fill="#eef3ff" stroke="#eef3ff"></path><path d="M126 650L409 660L343 503Z" fill="#eef3ff" stroke="#eef3ff"></path><path d="M0 513L126 650L197 468Z" fill="#eaf0ff" stroke="#eaf0ff"></path><path d="M0 349L197 468L145 276Z" fill="#ebf1ff" stroke="#ebf1ff"></path><path d="M1379 800L1580 800L1512 641Z" fill="#e9f0ff" stroke="#e9f0ff"></path><path d="M1755 594L1758 462L1575 439Z" fill="#eef3ff" stroke="#eef3ff"></path><path d="M1920 372L1755 184L1711 285Z" fill="#eff4ff" stroke="#eff4ff"></path><path d="M1711 285L1755 184L1569 202Z" fill="#e5eeff" stroke="#e5eeff"></path><path d="M1755 184L1716 0L1569 202Z" fill="#e9f0ff" stroke="#e9f0ff"></path><path d="M147 224L0 349L145 276Z" fill="#e7efff" stroke="#e7efff"></path><path d="M0 103L0 349L147 224Z" fill="#ecf2ff" stroke="#ecf2ff"></path><path d="M1755 594L1575 439L1512 641Z" fill="#f0f5ff" stroke="#f0f5ff"></path><path d="M201 0L0 103L147 224Z" fill="#eff4ff" stroke="#eff4ff"></path><path d="M0 349L0 513L197 468Z" fill="#ecf2ff" stroke="#ecf2ff"></path><path d="M126 650L0 800L228 800Z" fill="#eff4ff" stroke="#eff4ff"></path><path d="M1701 800L1755 594L1512 641Z" fill="#e6efff" stroke="#e6efff"></path><path d="M201 0L0 0L0 103Z" fill="#eaf0ff" stroke="#eaf0ff"></path><path d="M0 513L0 640L126 650Z" fill="#edf3ff" stroke="#edf3ff"></path><path d="M1580 800L1701 800L1512 641Z" fill="#eef3ff" stroke="#eef3ff"></path><path d="M0 640L0 800L126 650Z" fill="#e6efff" stroke="#e6efff"></path><path d="M1920 435L1920 372L1758 462Z" fill="#f0f5ff" stroke="#f0f5ff"></path><path d="M1758 462L1920 372L1711 285Z" fill="#ecf2ff" stroke="#ecf2ff"></path><path d="M1755 184L1920 0L1716 0Z" fill="#eaf0ff" stroke="#eaf0ff"></path><path d="M1920 435L1758 462L1755 594Z" fill="#edf3ff" stroke="#edf3ff"></path><path d="M1920 372L1920 158L1755 184Z" fill="#e6efff" stroke="#e6efff"></path><path d="M1920 680L1920 435L1755 594Z" fill="#e9f0ff" stroke="#e9f0ff"></path><path d="M1920 158L1920 0L1755 184Z" fill="#eff4ff" stroke="#eff4ff"></path><path d="M1701 800L1920 680L1755 594Z" fill="#f0f5ff" stroke="#f0f5ff"></path><path d="M1701 800L1920 800L1920 680Z" fill="#edf3ff" stroke="#edf3ff"></path></g></svg>